{"title":"Unbeatable.Banzuke.S01E57-E65.PDTV.x264-W4F","uid":11842650,"size":1639178416,"categoryP":"video","categoryS":"tv_shows","magnet":"?xt=urn:btih:3becb5aecd3bcd1562fff66719a91ef24f811e86&amp;dn=Unbeatable.Banzuke.S01E57-E65.PDTV.x264-W4F&amp;tr=udp%3A%2F%2Ftracker.openbittorrent.com%3A80&amp;tr=udp%3A%2F%2Fopen.demonii.com%3A1337&amp;tr=udp%3A%2F%2Ftracker.coppersurfer.tk%3A6969&amp;tr=udp%3A%2F%2Fexodus.desync.com%3A6969","seeders":0,"leechers":2,"uploader":"orangebirds","files":9,"time":1429875335,"description":"Unbeatable Banzuke (Kinniku Banzuke) Episode 49-56\nThis is the last part of Unbeatable Banzuke\n\nGeneral\nComplete name                            : unbeatable.banzuke.s01e57.pdtv.x264-w4f.mp4\nFormat                                   : MPEG-4\nFormat profile                           : Base Media\nCodec ID                                 : isom\nFile size                                : 144 MiB\nDuration                                 : 21mn 0s\nOverall bit rate mode                    : Variable\nOverall bit rate                         : 956 Kbps\nEncoded date                             : UTC 2013-10-07 09:18:55\nTagged date                              : UTC 2013-10-07 09:18:55\n\nVideo\nID                                       : 1\nFormat                                   : AVC\nFormat/Info                              : Advanced Video Codec\nFormat profile                           : &lt;a class=&quot;__cf_email__&quot; href=&quot;/cdn-cgi/l/email-protection&quot; data-cfemail=&quot;6921000e0129255a4758&quot;&gt;[email&amp;#160;protected]&lt;/a&gt;&lt;script cf-hash='f9e31' type=&quot;text/javascript&quot;&gt;\n/* &lt;![CDATA[ */!function(){try{var t=&quot;currentScript&quot;in document?document.currentScript:function(){for(var t=document.getElementsByTagName(&quot;script&quot;),e=t.length;e--;)if(t[e].getAttribute(&quot;cf-hash&quot;))return t[e]}();if(t&amp;&amp;t.previousSibling){var e,r,n,i,c=t.previousSibling,a=c.getAttribute(&quot;data-cfemail&quot;);if(a){for(e=&quot;&quot;,r=parseInt(a.substr(0,2),16),n=2;a.length-n;n+=2)i=parseInt(a.substr(n,2),16)^r,e+=String.fromCharCode(i);e=document.createTextNode(e),c.parentNode.replaceChild(e,c)}}}catch(u){}}();/* ]]&gt; */&lt;/script&gt;\nFormat settings, CABAC                   : Yes\nFormat settings, ReFrames                : 5 frames\nCodec ID                                 : avc1\nCodec ID/Info                            : Advanced Video Coding\nDuration                                 : 21mn 0s\nBit rate                                 : 843 Kbps\nMaximum bit rate                         : 2 919 Kbps\nWidth                                    : 640 pixels\nHeight                                   : 480 pixels\nDisplay aspect ratio                     : 4:3\nFrame rate mode                          : Constant\nFrame rate                               : 25.000 fps\nColor space                              : YUV\nChroma subsampling                       : 4:2:0\nBit depth                                : 8 bits\nScan type                                : Progressive\nBits/(Pixel*Frame)                       : 0.110\nStream size                              : 127 MiB (88%)\nTitle                                    : Video\nWriting library                          : x264 core 138 r2358 9e941d1\nEncoding settings                        : cabac=1 / ref=5 / deblock=1:0:0 / analyse=0x3:0x113 / me=umh / subme=8 / psy=1 / psy_rd=1.00:0.00 / mixed_ref=1 / me_range=16 / chroma_me=1 / trellis=1 / 8x8dct=1 / cqm=0 / deadzone=21,11 / fast_pskip=1 / chroma_qp_offset=-2 / threads=12 / lookahead_threads=2 / sliced_threads=0 / nr=0 / decimate=1 / interlaced=0 / bluray_compat=0 / constrained_intra=0 / bframes=3 / b_pyramid=2 / b_adapt=2 / b_bias=0 / direct=3 / weightb=1 / open_gop=0 / weightp=2 / keyint=250 / keyint_min=25 / scenecut=40 / intra_refresh=0 / rc_lookahead=50 / rc=crf / mbtree=1 / crf=23.0 / qcomp=0.60 / qpmin=0 / qpmax=69 / qpstep=4 / ip_ratio=1.40 / aq=1:1.00\nEncoded date                             : UTC 2013-10-07 09:18:55\nTagged date                              : UTC 2013-10-07 09:18:56\n\nAudio\nID                                       : 2\nFormat                                   : AAC\nFormat/Info                              : Advanced Audio Codec\nFormat profile                           : LC\nCodec ID                                 : 40\nDuration                                 : 21mn 0s\nBit rate mode                            : Variable\nBit rate                                 : 109 Kbps\nMaximum bit rate                         : 140 Kbps\nChannel(s)                               : 2 channels\nChannel positions                        : Front: L R\nSampling rate                            : 48.0 KHz\nCompression mode                         : Lossy\nStream size                              : 16.4 MiB (11%)\nEncoded date                             : UTC 2013-10-07 09:18:56\nTagged date                              : UTC 2013-10-07 09:18:56","torrent":{"xt":"urn:btih:3becb5aecd3bcd1562fff66719a91ef24f811e86","amp;dn":"Unbeatable.Banzuke.S01E57-E65.PDTV.x264-W4F","amp;tr":["udp%3A%2F%2Ftracker.openbittorrent.com%3A80","udp%3A%2F%2Fopen.demonii.com%3A1337","udp%3A%2F%2Ftracker.coppersurfer.tk%3A6969","udp%3A%2F%2Fexodus.desync.com%3A6969"],"infoHash":"3becb5aecd3bcd1562fff66719a91ef24f811e86","infoHashBuffer":{"type":"Buffer","data":[59,236,181,174,205,59,205,21,98,255,246,103,25,169,30,242,79,129,30,134]},"announce":[],"urlList":[]}}